<?xml version="1.0" standalone="no"?><!DOCTYPE svg PUBLIC "-//W3C//DTD SVG 1.1//EN" "http://www.w3.org/Graphics/SVG/1.1/DTD/svg11.dtd"><svg t="1618795705651" class="icon" viewBox="0 0 1024 1024" version="1.1" xmlns="http://www.w3.org/2000/svg" p-id="5152" xmlns:xlink="http://www.w3.org/1999/xlink" width="200" height="200"><defs><style type="text/css"></style></defs><path d="M743.36 0L1024 282.453333V938.666667a85.333333 85.333333 0 0 1-85.333333 85.333333H213.333333a85.333333 85.333333 0 0 1-85.333333-85.333333v-106.666667H42.666667a42.666667 42.666667 0 0 1-42.666667-42.666667V426.666667a42.666667 42.666667 0 0 1 42.666667-42.666667h85.333333V85.333333a85.333333 85.333333 0 0 1 85.333333-85.333333h530.026667z m-26.645333 64H213.333333a21.333333 21.333333 0 0 0-21.333333 21.333333v298.666667h640a42.666667 42.666667 0 0 1 42.666667 42.666667v362.666666a42.666667 42.666667 0 0 1-42.666667 42.666667H192v106.666667a21.333333 21.333333 0 0 0 21.333333 21.333333h725.333334a21.333333 21.333333 0 0 0 21.333333-21.333333V308.821333L949.909333 298.666667h-126.528A98.048 98.048 0 0 1 725.333333 200.618667V72.682667L716.714667 64zM191.189333 467.114667c-43.776 0-77.184 14.208-100.224 43.392-20.352 25.344-30.336 58.752-30.336 99.456 0 41.472 9.6 74.496 29.184 99.072 22.272 28.416 56.448 43.008 102.144 43.008 29.568 0 54.912-8.448 76.032-25.344 22.656-18.048 36.864-43.008 43.008-75.264h-43.776c-5.376 20.736-14.592 36.48-27.648 46.848-12.288 9.216-28.416 14.208-48 14.208-29.952 0-52.224-9.6-66.432-28.032-13.056-17.28-19.584-42.24-19.584-74.496 0-31.488 6.528-56.064 19.968-73.728 14.592-19.968 36.096-29.568 64.896-29.568 19.2 0 34.944 3.84 47.232 12.288 12.672 8.448 21.12 21.504 25.728 39.552h43.776c-4.224-27.648-16.128-49.92-36.096-66.048-20.736-16.896-47.616-25.344-79.872-25.344z m258.816 0c-29.568 0-53.76 6.528-72.96 19.968-20.736 13.824-30.72 33.024-30.72 57.216s10.368 42.624 31.488 55.296c8.064 4.608 29.184 12.288 62.976 23.04 30.336 9.216 48 15.36 53.376 18.048 16.896 8.448 25.728 19.968 25.728 34.56 0 11.52-6.144 20.352-17.664 27.264-11.52 6.528-27.648 9.984-47.616 9.984-22.656 0-39.168-4.224-49.92-11.904-11.904-8.832-19.2-23.808-22.272-44.544h-44.544c1.92 34.944 14.592 60.288 37.632 76.416 18.816 13.056 45.312 19.584 79.104 19.584 34.944 0 62.208-7.296 81.408-21.12 19.2-14.208 28.8-33.792 28.8-58.368 0-25.344-11.904-44.928-35.712-59.136-10.752-6.144-34.56-15.36-71.808-26.88-25.344-8.064-41.088-13.824-46.848-16.896-13.056-6.912-19.2-16.512-19.2-28.032 0-13.056 5.376-22.656 16.896-28.416 9.216-4.992 22.272-7.296 39.552-7.296 19.968 0 35.328 3.456 45.312 11.136 9.984 7.296 17.28 19.584 21.12 36.48h44.544c-2.688-29.952-13.824-52.224-33.024-66.432-18.048-13.44-43.392-19.968-75.648-19.968z m177.024 5.376h-48.768L675.797333 746.666667h54.144l97.536-274.176h-48.768l-75.264 223.488h-1.152l-75.264-223.488z" fill="#FE136C" p-id="5153"></path></svg>