<?xml version="1.0" standalone="no"?><!DOCTYPE svg PUBLIC "-//W3C//DTD SVG 1.1//EN" "http://www.w3.org/Graphics/SVG/1.1/DTD/svg11.dtd"><svg t="1618795788685" class="icon" viewBox="0 0 1024 1024" version="1.1" xmlns="http://www.w3.org/2000/svg" p-id="5508" xmlns:xlink="http://www.w3.org/1999/xlink" width="200" height="200"><defs><style type="text/css"></style></defs><path d="M738.397287 67.493184c-56.880475 0-114.188692 21.47715-157.898193 64.020082l-146.097426 144.341433c-13.179161 13.282514-13.179161 34.827203 0 48.080042 13.704117 13.08911 35.753295 13.08911 49.027623 0l146.099473-144.044674 0.462534 0c29.508058-29.455869 69.13559-44.00319 108.405989-44.00319 85.23936 0 153.491837 67.230194 153.491837 151.340847 0 38.649252-14.749936 77.564563-44.62536 107.111506L688.320775 551.152718c-29.842679 28.54308-68.548212 43.091424-107.821681 43.091424-53.92312 0-104.430444-28.547173-131.934868-73.998341-6.375198-10.854209-11.69946-22.487154-15.214517-34.345226-5.291516-18.146289-24.384363-28.252461-43.117007-22.968108-18.036795 5.310959-28.389584 24.425296-23.034623 42.343387 5.425569 16.881482 12.787234 33.794687 22.576181 49.505507l0 0.291642c39.73191 65.484434 111.826901 106.787118 190.724833 106.787118 56.391335 0 112.815415-20.796652 155.992797-62.368466l159.247934-157.070338c43.145659-42.544979 64.700581-99.110275 64.700581-155.195641C960.440405 165.66304 861.46009 67.493184 738.397287 67.493184z" p-id="5509" fill="#1afa29"></path><path d="M540.773324 696.206372l0-0.002047L394.673851 840.48129c-59.279105 58.544371-158.39245 58.772568-217.638809 0.228197l0-0.228197c-59.377342-58.483996-59.377342-155.907862 0-214.32432l157.307745-155.712411c30.001291-28.966729 69.168336-43.768853 108.899222-43.768853 39.729863 0 78.901001 14.804171 108.869546 43.768853l0 0.452301c9.29776 8.943696 16.663518 18.919908 23.036669 29.54899 6.800893 10.624988 11.69946 22.224164 15.214517 33.794687 5.351891 18.371416 24.512277 28.54308 42.556235 23.228027 18.173918-5.310959 28.982078-24.169469 23.624047-42.312688-5.454222-17.396205-12.846586-34.082236-21.554922-49.536206-9.891278-15.486716-21.096481-30.001291-33.847899-43.062771-43.703361-42.573631-100.553137-64.018036-157.898193-64.018036-57.308217 0-114.190739 21.444405-157.8941 64.018036L127.975696 578.013483c-85.804225 84.819804-85.804225 225.76079 0 311.034942l2.39863 1.74883c86.259596 82.876546 226.610134 82.166371 312.407196-1.227967l0-0.51984 0.460488-0.452301 146.560984-144.048767c13.272281-13.510712 13.272281-34.799574-0.458441-48.340985C576.066131 683.115216 554.047652 683.115216 540.773324 696.206372z" p-id="5510" fill="#1afa29"></path></svg>